# xmcd
#
# Track frame offsets: 
#        150
#        10756
#        23900
#        35661
#        46725
#        57052
#        68867
#        78454
#        89333
#        100964
#        112651
#        123349
#        134093
#        146978
#        157066
#        169470
#        180783
#        189109
#        201223
#        212245
#        223401
#        233061
#        243821
#        253941
#        264926
#
# Disc length: 3678 seconds
#
# Revision: 1
# Processed by: cddbd v1.5.2PL0 Copyright (c) Steve Scherf et al.
# Submitted via: ExactAudioCopyFreeDBPlugin 1.0
#
DISCID=640e5c19
DTITLE=Various Artist - Mod:  The Early Years [Real Gone Music]
DYEAR=2017
DGENRE=Rhythm and Blues
TTITLE0=Thurston Harris - Little Bitty Pretty One
TTITLE1=Dave Dixon - Hey Hey Pretty Baby
TTITLE2=The "5" Royales - Think
TTITLE3=Lazy Lester - I'm a Lover Not a Fighter
TTITLE4=Louisiana Red - I Done Woke Up
TTITLE5=Otis Rush - Homework
TTITLE6=Baby Washington - Hush Heart
TTITLE7=Yvonne Fair - I Found You
TTITLE8=Willie West - Willie Knows How
TTITLE9=Clyde McPhatter - A Lover's Question
TTITLE10=The Showmen - The Owl Sees You
TTITLE11=Bruce Channel - Hey Baby
TTITLE12=Bobby Kingdom and The Blue Beats - Baby What You Done Me is Wro
TTITLE12=ng
TTITLE13=Lloyd Nolan - Fun Fun
TTITLE14=Byron Lee and The Dragonaires - Dumplin's
TTITLE15=The Fiestas - I Feel Good All Over
TTITLE16=Larry Williams - She Said Yeah
TTITLE17=Derrick and Patsy - Housewife's Choice
TTITLE18=Jimmy Reed - Baby What You Want Me to Do
TTITLE19=The Duals - Stick Shift
TTITLE20=Manolo Muñoz - Uh-Huh
TTITLE21=Lloyd Price - Stagger Lee
TTITLE22=Willie Jones - Where's My Money
TTITLE23=Terry and Jerry - Mama Julie
TTITLE24=Betty Everett - I've Got a Claim on You
EXTD=
EXTT0=
EXTT1=
EXTT2=
EXTT3=
EXTT4=
EXTT5=
EXTT6=
EXTT7=
EXTT8=
EXTT9=
EXTT10=
EXTT11=
EXTT12=
EXTT13=
EXTT14=
EXTT15=
EXTT16=
EXTT17=
EXTT18=
EXTT19=
EXTT20=
EXTT21=
EXTT22=
EXTT23=
EXTT24=
PLAYORDER=
